<svg id="visual" viewBox="0 0 1440 1024" width="1440" height="1024" xmlns="http://www.w3.org/2000/svg" xmlns:xlink="http://www.w3.org/1999/xlink" version="1.1"><path d="M0 52L15 48.7C30 45.3 60 38.7 90 40.3C120 42 150 52 180 53.7C210 55.3 240 48.7 270 43.7C300 38.7 330 35.3 360 35.3C390 35.3 420 38.7 450 40.3C480 42 510 42 540 43.7C570 45.3 600 48.7 630 48.7C660 48.7 690 45.3 720 43.7C750 42 780 42 810 40.3C840 38.7 870 35.3 900 33.7C930 32 960 32 990 32C1020 32 1050 32 1080 37C1110 42 1140 52 1170 52C1200 52 1230 42 1260 40.3C1290 38.7 1320 45.3 1350 43.5C1380 41.7 1410 31.3 1425 26.2L1440 21L1440 0L1425 0C1410 0 1380 0 1350 0C1320 0 1290 0 1260 0C1230 0 1200 0 1170 0C1140 0 1110 0 1080 0C1050 0 1020 0 990 0C960 0 930 0 900 0C870 0 840 0 810 0C780 0 750 0 720 0C690 0 660 0 630 0C600 0 570 0 540 0C510 0 480 0 450 0C420 0 390 0 360 0C330 0 300 0 270 0C240 0 210 0 180 0C150 0 120 0 90 0C60 0 30 0 15 0L0 0Z" fill="#444b83"></path><path d="M0 134L15 130.7C30 127.3 60 120.7 90 127.5C120 134.3 150 154.7 180 149.5C210 144.3 240 113.7 270 103.5C300 93.3 330 103.7 360 107C390 110.3 420 106.7 450 101.5C480 96.3 510 89.7 540 88C570 86.3 600 89.7 630 99.8C660 110 690 127 720 137.3C750 147.7 780 151.3 810 153.2C840 155 870 155 900 151.5C930 148 960 141 990 130.7C1020 120.3 1050 106.7 1080 101.5C1110 96.3 1140 99.7 1170 99.7C1200 99.7 1230 96.3 1260 101.5C1290 106.7 1320 120.3 1350 117C1380 113.7 1410 93.3 1425 83.2L1440 73L1440 19L1425 24.2C1410 29.3 1380 39.7 1350 41.5C1320 43.3 1290 36.7 1260 38.3C1230 40 1200 50 1170 50C1140 50 1110 40 1080 35C1050 30 1020 30 990 30C960 30 930 30 900 31.7C870 33.3 840 36.7 810 38.3C780 40 750 40 720 41.7C690 43.3 660 46.7 630 46.7C600 46.7 570 43.3 540 41.7C510 40 480 40 450 38.3C420 36.7 390 33.3 360 33.3C330 33.3 300 36.7 270 41.7C240 46.7 210 53.3 180 51.7C150 50 120 40 90 38.3C60 36.7 30 43.3 15 46.7L0 50Z" fill="#333a6f"></path><path d="M0 196L15 187.3C30 178.7 60 161.3 90 169.8C120 178.3 150 212.7 180 205.8C210 199 240 151 270 133.8C300 116.7 330 130.3 360 139C390 147.7 420 151.3 450 148C480 144.7 510 134.3 540 127.5C570 120.7 600 117.3 630 132.7C660 148 690 182 720 195.7C750 209.3 780 202.7 810 199.3C840 196 870 196 900 189.2C930 182.3 960 168.7 990 160C1020 151.3 1050 147.7 1080 145.8C1110 144 1140 144 1170 142.3C1200 140.7 1230 137.3 1260 142.5C1290 147.7 1320 161.3 1350 161.3C1380 161.3 1410 147.7 1425 140.8L1440 134L1440 71L1425 81.2C1410 91.3 1380 111.7 1350 115C1320 118.3 1290 104.7 1260 99.5C1230 94.3 1200 97.7 1170 97.7C1140 97.7 1110 94.3 1080 99.5C1050 104.7 1020 118.3 990 128.7C960 139 930 146 900 149.5C870 153 840 153 810 151.2C780 149.3 750 145.7 720 135.3C690 125 660 108 630 97.8C600 87.7 570 84.3 540 86C510 87.7 480 94.3 450 99.5C420 104.7 390 108.3 360 105C330 101.7 300 91.3 270 101.5C240 111.7 210 142.3 180 147.5C150 152.7 120 132.3 90 125.5C60 118.7 30 125.3 15 128.7L0 132Z" fill="#21295c"></path><path d="M0 247L15 241.8C30 236.7 60 226.3 90 234.8C120 243.3 150 270.7 180 258.7C210 246.7 240 195.3 270 176.5C300 157.7 330 171.3 360 178.2C390 185 420 185 450 190.2C480 195.3 510 205.7 540 209.2C570 212.7 600 209.3 630 223C660 236.7 690 267.3 720 270.7C750 274 780 250 810 246.5C840 243 870 260 900 255C930 250 960 223 990 214.5C1020 206 1050 216 1080 212.5C1110 209 1140 192 1170 181.8C1200 171.7 1230 168.3 1260 178.7C1290 189 1320 213 1350 223.2C1380 233.3 1410 229.7 1425 227.8L1440 226L1440 132L1425 138.8C1410 145.7 1380 159.3 1350 159.3C1320 159.3 1290 145.7 1260 140.5C1230 135.3 1200 138.7 1170 140.3C1140 142 1110 142 1080 143.8C1050 145.7 1020 149.3 990 158C960 166.7 930 180.3 900 187.2C870 194 840 194 810 197.3C780 200.7 750 207.3 720 193.7C690 180 660 146 630 130.7C600 115.3 570 118.7 540 125.5C510 132.3 480 142.7 450 146C420 149.3 390 145.7 360 137C330 128.3 300 114.7 270 131.8C240 149 210 197 180 203.8C150 210.7 120 176.3 90 167.8C60 159.3 30 176.7 15 185.3L0 194Z" fill="#1c2550"></path><path d="M0 298L15 291.2C30 284.3 60 270.7 90 280.8C120 291 150 325 180 313C210 301 240 243 270 226C300 209 330 233 360 239.8C390 246.7 420 236.3 450 241.5C480 246.7 510 267.3 540 269.2C570 271 600 254 630 262.5C660 271 690 305 720 310C750 315 780 291 810 289.3C840 287.7 870 308.3 900 303.3C930 298.3 960 267.7 990 262.5C1020 257.3 1050 277.7 1080 272.5C1110 267.3 1140 236.7 1170 223C1200 209.3 1230 212.7 1260 228C1290 243.3 1320 270.7 1350 275.8C1380 281 1410 264 1425 255.5L1440 247L1440 224L1425 225.8C1410 227.7 1380 231.3 1350 221.2C1320 211 1290 187 1260 176.7C1230 166.3 1200 169.7 1170 179.8C1140 190 1110 207 1080 210.5C1050 214 1020 204 990 212.5C960 221 930 248 900 253C870 258 840 241 810 244.5C780 248 750 272 720 268.7C690 265.3 660 234.7 630 221C600 207.3 570 210.7 540 207.2C510 203.7 480 193.3 450 188.2C420 183 390 183 360 176.2C330 169.3 300 155.7 270 174.5C240 193.3 210 244.7 180 256.7C150 268.7 120 241.3 90 232.8C60 224.3 30 234.7 15 239.8L0 245Z" fill="#182044"></path><path d="M0 431L15 424.2C30 417.3 60 403.7 90 414C120 424.3 150 458.7 180 479.2C210 499.7 240 506.3 270 513C300 519.7 330 526.3 360 529.7C390 533 420 533 450 531.3C480 529.7 510 526.3 540 511C570 495.7 600 468.3 630 466.7C660 465 690 489 720 480.5C750 472 780 431 810 444.7C840 458.3 870 526.7 900 545.5C930 564.3 960 533.7 990 523.3C1020 513 1050 523 1080 494C1110 465 1140 397 1170 368C1200 339 1230 349 1260 364.3C1290 379.7 1320 400.3 1350 405.5C1380 410.7 1410 400.3 1425 395.2L1440 390L1440 245L1425 253.5C1410 262 1380 279 1350 273.8C1320 268.7 1290 241.3 1260 226C1230 210.7 1200 207.3 1170 221C1140 234.7 1110 265.3 1080 270.5C1050 275.7 1020 255.3 990 260.5C960 265.7 930 296.3 900 301.3C870 306.3 840 285.7 810 287.3C780 289 750 313 720 308C690 303 660 269 630 260.5C600 252 570 269 540 267.2C510 265.3 480 244.7 450 239.5C420 234.3 390 244.7 360 237.8C330 231 300 207 270 224C240 241 210 299 180 311C150 323 120 289 90 278.8C60 268.7 30 282.3 15 289.2L0 296Z" fill="#182044"></path><path d="M0 636L15 644.5C30 653 60 670 90 695.5C120 721 150 755 180 743C210 731 240 673 270 656C300 639 330 663 360 664.8C390 666.7 420 646.3 450 646.3C480 646.3 510 666.7 540 671.7C570 676.7 600 666.3 630 663C660 659.7 690 663.3 720 666.8C750 670.3 780 673.7 810 694C840 714.3 870 751.7 900 755C930 758.3 960 727.7 990 714.2C1020 700.7 1050 704.3 1080 697.5C1110 690.7 1140 673.3 1170 666.5C1200 659.7 1230 663.3 1260 665.2C1290 667 1320 667 1350 672C1380 677 1410 687 1425 692L1440 697L1440 388L1425 393.2C1410 398.3 1380 408.7 1350 403.5C1320 398.3 1290 377.7 1260 362.3C1230 347 1200 337 1170 366C1140 395 1110 463 1080 492C1050 521 1020 511 990 521.3C960 531.7 930 562.3 900 543.5C870 524.7 840 456.3 810 442.7C780 429 750 470 720 478.5C690 487 660 463 630 464.7C600 466.3 570 493.7 540 509C510 524.3 480 527.7 450 529.3C420 531 390 531 360 527.7C330 524.3 300 517.7 270 511C240 504.3 210 497.7 180 477.2C150 456.7 120 422.3 90 412C60 401.7 30 415.3 15 422.2L0 429Z" fill="#182044"></path><path d="M0 738L15 734.7C30 731.3 60 724.7 90 743.5C120 762.3 150 806.7 180 805C210 803.3 240 755.7 270 736.8C300 718 330 728 360 728C390 728 420 718 450 724.8C480 731.7 510 755.3 540 762.2C570 769 600 759 630 748.8C660 738.7 690 728.3 720 724.8C750 721.3 780 724.7 810 748.5C840 772.3 870 816.7 900 825.2C930 833.7 960 806.3 990 785.8C1020 765.3 1050 751.7 1080 741.5C1110 731.3 1140 724.7 1170 728.2C1200 731.7 1230 745.3 1260 753.8C1290 762.3 1320 765.7 1350 764C1380 762.3 1410 755.7 1425 752.3L1440 749L1440 695L1425 690C1410 685 1380 675 1350 670C1320 665 1290 665 1260 663.2C1230 661.3 1200 657.7 1170 664.5C1140 671.3 1110 688.7 1080 695.5C1050 702.3 1020 698.7 990 712.2C960 725.7 930 756.3 900 753C870 749.7 840 712.3 810 692C780 671.7 750 668.3 720 664.8C690 661.3 660 657.7 630 661C600 664.3 570 674.7 540 669.7C510 664.7 480 644.3 450 644.3C420 644.3 390 664.7 360 662.8C330 661 300 637 270 654C240 671 210 729 180 741C150 753 120 719 90 693.5C60 668 30 651 15 642.5L0 634Z" fill="#1c2550"></path><path d="M0 923L15 909.3C30 895.7 60 868.3 90 868.3C120 868.3 150 895.7 180 900.7C210 905.7 240 888.3 270 890C300 891.7 330 912.3 360 917.5C390 922.7 420 912.3 450 903.8C480 895.3 510 888.7 540 885.3C570 882 600 882 630 876.8C660 871.7 690 861.3 720 871.5C750 881.7 780 912.3 810 926C840 939.7 870 936.3 900 926.2C930 916 960 899 990 890.5C1020 882 1050 882 1080 876.8C1110 871.7 1140 861.3 1170 868.2C1200 875 1230 899 1260 912.7C1290 926.3 1320 929.7 1350 916C1380 902.3 1410 871.7 1425 856.3L1440 841L1440 747L1425 750.3C1410 753.7 1380 760.3 1350 762C1320 763.7 1290 760.3 1260 751.8C1230 743.3 1200 729.7 1170 726.2C1140 722.7 1110 729.3 1080 739.5C1050 749.7 1020 763.3 990 783.8C960 804.3 930 831.7 900 823.2C870 814.7 840 770.3 810 746.5C780 722.7 750 719.3 720 722.8C690 726.3 660 736.7 630 746.8C600 757 570 767 540 760.2C510 753.3 480 729.7 450 722.8C420 716 390 726 360 726C330 726 300 716 270 734.8C240 753.7 210 801.3 180 803C150 804.7 120 760.3 90 741.5C60 722.7 30 729.3 15 732.7L0 736Z" fill="#21295c"></path><path d="M0 974L15 975.7C30 977.3 60 980.7 90 985.8C120 991 150 998 180 998C210 998 240 991 270 987.5C300 984 330 984 360 982.3C390 980.7 420 977.3 450 975.7C480 974 510 974 540 968.8C570 963.7 600 953.3 630 948.2C660 943 690 943 720 951.5C750 960 780 977 810 985.5C840 994 870 994 900 990.7C930 987.3 960 980.7 990 980.7C1020 980.7 1050 987.3 1080 987.3C1110 987.3 1140 980.7 1170 979C1200 977.3 1230 980.7 1260 984C1290 987.3 1320 990.7 1350 983.8C1380 977 1410 960 1425 951.5L1440 943L1440 839L1425 854.3C1410 869.7 1380 900.3 1350 914C1320 927.7 1290 924.3 1260 910.7C1230 897 1200 873 1170 866.2C1140 859.3 1110 869.7 1080 874.8C1050 880 1020 880 990 888.5C960 897 930 914 900 924.2C870 934.3 840 937.7 810 924C780 910.3 750 879.7 720 869.5C690 859.3 660 869.7 630 874.8C600 880 570 880 540 883.3C510 886.7 480 893.3 450 901.8C420 910.3 390 920.7 360 915.5C330 910.3 300 889.7 270 888C240 886.3 210 903.7 180 898.7C150 893.7 120 866.3 90 866.3C60 866.3 30 893.7 15 907.3L0 921Z" fill="#333a6f"></path><path d="M0 1025L15 1025C30 1025 60 1025 90 1025C120 1025 150 1025 180 1025C210 1025 240 1025 270 1025C300 1025 330 1025 360 1025C390 1025 420 1025 450 1025C480 1025 510 1025 540 1025C570 1025 600 1025 630 1025C660 1025 690 1025 720 1025C750 1025 780 1025 810 1025C840 1025 870 1025 900 1025C930 1025 960 1025 990 1025C1020 1025 1050 1025 1080 1025C1110 1025 1140 1025 1170 1025C1200 1025 1230 1025 1260 1025C1290 1025 1320 1025 1350 1025C1380 1025 1410 1025 1425 1025L1440 1025L1440 941L1425 949.5C1410 958 1380 975 1350 981.8C1320 988.7 1290 985.3 1260 982C1230 978.7 1200 975.3 1170 977C1140 978.7 1110 985.3 1080 985.3C1050 985.3 1020 978.7 990 978.7C960 978.7 930 985.3 900 988.7C870 992 840 992 810 983.5C780 975 750 958 720 949.5C690 941 660 941 630 946.2C600 951.3 570 961.7 540 966.8C510 972 480 972 450 973.7C420 975.3 390 978.7 360 980.3C330 982 300 982 270 985.5C240 989 210 996 180 996C150 996 120 989 90 983.8C60 978.7 30 975.3 15 973.7L0 972Z" fill="#444b83"></path></svg>