<svg id="visual" viewBox="0 0 900 600" width="900" height="600" xmlns="http://www.w3.org/2000/svg" xmlns:xlink="http://www.w3.org/1999/xlink" version="1.1"><path d="M0 43L9.3 41C18.7 39 37.3 35 56.2 31C75 27 94 23 112.8 24C131.7 25 150.3 31 169 36C187.7 41 206.3 45 225 48C243.7 51 262.3 53 281.2 51C300 49 319 43 337.8 42C356.7 41 375.3 45 394 46C412.7 47 431.3 45 450 41C468.7 37 487.3 31 506.2 31C525 31 544 37 562.8 38C581.7 39 600.3 35 619 34C637.7 33 656.3 35 675 34C693.7 33 712.3 29 731.2 29C750 29 769 33 787.8 35C806.7 37 825.3 37 844 38C862.7 39 881.3 41 890.7 42L900 43L900 0L890.7 0C881.3 0 862.7 0 844 0C825.3 0 806.7 0 787.8 0C769 0 750 0 731.2 0C712.3 0 693.7 0 675 0C656.3 0 637.7 0 619 0C600.3 0 581.7 0 562.8 0C544 0 525 0 506.2 0C487.3 0 468.7 0 450 0C431.3 0 412.7 0 394 0C375.3 0 356.7 0 337.8 0C319 0 300 0 281.2 0C262.3 0 243.7 0 225 0C206.3 0 187.7 0 169 0C150.3 0 131.7 0 112.8 0C94 0 75 0 56.2 0C37.3 0 18.7 0 9.3 0L0 0Z" fill="#444b83"></path><path d="M0 97L9.3 99C18.7 101 37.3 105 56.2 102C75 99 94 89 112.8 94C131.7 99 150.3 119 169 130C187.7 141 206.3 143 225 143C243.7 143 262.3 141 281.2 132C300 123 319 107 337.8 108C356.7 109 375.3 127 394 131C412.7 135 431.3 125 450 122C468.7 119 487.3 123 506.2 119C525 115 544 103 562.8 98C581.7 93 600.3 95 619 101C637.7 107 656.3 117 675 114C693.7 111 712.3 95 731.2 92C750 89 769 99 787.8 106C806.7 113 825.3 117 844 121C862.7 125 881.3 129 890.7 131L900 133L900 41L890.7 40C881.3 39 862.7 37 844 36C825.3 35 806.7 35 787.8 33C769 31 750 27 731.2 27C712.3 27 693.7 31 675 32C656.3 33 637.7 31 619 32C600.3 33 581.7 37 562.8 36C544 35 525 29 506.2 29C487.3 29 468.7 35 450 39C431.3 43 412.7 45 394 44C375.3 43 356.7 39 337.8 40C319 41 300 47 281.2 49C262.3 51 243.7 49 225 46C206.3 43 187.7 39 169 34C150.3 29 131.7 23 112.8 22C94 21 75 25 56.2 29C37.3 33 18.7 37 9.3 39L0 41Z" fill="#333a6f"></path><path d="M0 193L9.3 203C18.7 213 37.3 233 56.2 228C75 223 94 193 112.8 190C131.7 187 150.3 211 169 233C187.7 255 206.3 275 225 273C243.7 271 262.3 247 281.2 229C300 211 319 199 337.8 215C356.7 231 375.3 275 394 281C412.7 287 431.3 255 450 249C468.7 243 487.3 263 506.2 256C525 249 544 215 562.8 195C581.7 175 600.3 169 619 172C637.7 175 656.3 187 675 185C693.7 183 712.3 167 731.2 165C750 163 769 175 787.8 181C806.7 187 825.3 187 844 196C862.7 205 881.3 223 890.7 232L900 241L900 131L890.7 129C881.3 127 862.7 123 844 119C825.3 115 806.7 111 787.8 104C769 97 750 87 731.2 90C712.3 93 693.7 109 675 112C656.3 115 637.7 105 619 99C600.3 93 581.7 91 562.8 96C544 101 525 113 506.2 117C487.3 121 468.7 117 450 120C431.3 123 412.7 133 394 129C375.3 125 356.7 107 337.8 106C319 105 300 121 281.2 130C262.3 139 243.7 141 225 141C206.3 141 187.7 139 169 128C150.3 117 131.7 97 112.8 92C94 87 75 97 56.2 100C37.3 103 18.7 99 9.3 97L0 95Z" fill="#21295c"></path><path d="M0 253L9.3 259C18.7 265 37.3 277 56.2 272C75 267 94 245 112.8 242C131.7 239 150.3 255 169 272C187.7 289 206.3 307 225 308C243.7 309 262.3 293 281.2 279C300 265 319 253 337.8 266C356.7 279 375.3 317 394 323C412.7 329 431.3 303 450 296C468.7 289 487.3 301 506.2 288C525 275 544 237 562.8 222C581.7 207 600.3 215 619 226C637.7 237 656.3 251 675 245C693.7 239 712.3 213 731.2 207C750 201 769 215 787.8 219C806.7 223 825.3 217 844 223C862.7 229 881.3 247 890.7 256L900 265L900 239L890.7 230C881.3 221 862.7 203 844 194C825.3 185 806.7 185 787.8 179C769 173 750 161 731.2 163C712.3 165 693.7 181 675 183C656.3 185 637.7 173 619 170C600.3 167 581.7 173 562.8 193C544 213 525 247 506.2 254C487.3 261 468.7 241 450 247C431.3 253 412.7 285 394 279C375.3 273 356.7 229 337.8 213C319 197 300 209 281.2 227C262.3 245 243.7 269 225 271C206.3 273 187.7 253 169 231C150.3 209 131.7 185 112.8 188C94 191 75 221 56.2 226C37.3 231 18.7 211 9.3 201L0 191Z" fill="#1c2550"></path><path d="M0 343L9.3 349C18.7 355 37.3 367 56.2 355C75 343 94 307 112.8 300C131.7 293 150.3 315 169 332C187.7 349 206.3 361 225 356C243.7 351 262.3 329 281.2 319C300 309 319 311 337.8 325C356.7 339 375.3 365 394 371C412.7 377 431.3 363 450 363C468.7 363 487.3 377 506.2 362C525 347 544 303 562.8 288C581.7 273 600.3 287 619 297C637.7 307 656.3 313 675 304C693.7 295 712.3 271 731.2 263C750 255 769 263 787.8 271C806.7 279 825.3 287 844 297C862.7 307 881.3 319 890.7 325L900 331L900 263L890.7 254C881.3 245 862.7 227 844 221C825.3 215 806.7 221 787.8 217C769 213 750 199 731.2 205C712.3 211 693.7 237 675 243C656.3 249 637.7 235 619 224C600.3 213 581.7 205 562.8 220C544 235 525 273 506.2 286C487.3 299 468.7 287 450 294C431.3 301 412.7 327 394 321C375.3 315 356.7 277 337.8 264C319 251 300 263 281.2 277C262.3 291 243.7 307 225 306C206.3 305 187.7 287 169 270C150.3 253 131.7 237 112.8 240C94 243 75 265 56.2 270C37.3 275 18.7 263 9.3 257L0 251Z" fill="#182044"></path><path d="M0 355L9.3 363C18.7 371 37.3 387 56.2 376C75 365 94 327 112.8 318C131.7 309 150.3 329 169 348C187.7 367 206.3 385 225 382C243.7 379 262.3 355 281.2 344C300 333 319 335 337.8 351C356.7 367 375.3 397 394 405C412.7 413 431.3 399 450 397C468.7 395 487.3 405 506.2 388C525 371 544 327 562.8 310C581.7 293 600.3 303 619 315C637.7 327 656.3 341 675 335C693.7 329 712.3 303 731.2 295C750 287 769 297 787.8 306C806.7 315 825.3 323 844 330C862.7 337 881.3 343 890.7 346L900 349L900 329L890.7 323C881.3 317 862.7 305 844 295C825.3 285 806.7 277 787.8 269C769 261 750 253 731.2 261C712.3 269 693.7 293 675 302C656.3 311 637.7 305 619 295C600.3 285 581.7 271 562.8 286C544 301 525 345 506.2 360C487.3 375 468.7 361 450 361C431.3 361 412.7 375 394 369C375.3 363 356.7 337 337.8 323C319 309 300 307 281.2 317C262.3 327 243.7 349 225 354C206.3 359 187.7 347 169 330C150.3 313 131.7 291 112.8 298C94 305 75 341 56.2 353C37.3 365 18.7 353 9.3 347L0 341Z" fill="#182044"></path><path d="M0 499L9.3 496C18.7 493 37.3 487 56.2 477C75 467 94 453 112.8 455C131.7 457 150.3 475 169 482C187.7 489 206.3 485 225 486C243.7 487 262.3 493 281.2 495C300 497 319 495 337.8 494C356.7 493 375.3 493 394 491C412.7 489 431.3 485 450 487C468.7 489 487.3 497 506.2 490C525 483 544 461 562.8 453C581.7 445 600.3 451 619 457C637.7 463 656.3 469 675 469C693.7 469 712.3 463 731.2 465C750 467 769 477 787.8 479C806.7 481 825.3 475 844 471C862.7 467 881.3 465 890.7 464L900 463L900 347L890.7 344C881.3 341 862.7 335 844 328C825.3 321 806.7 313 787.8 304C769 295 750 285 731.2 293C712.3 301 693.7 327 675 333C656.3 339 637.7 325 619 313C600.3 301 581.7 291 562.8 308C544 325 525 369 506.2 386C487.3 403 468.7 393 450 395C431.3 397 412.7 411 394 403C375.3 395 356.7 365 337.8 349C319 333 300 331 281.2 342C262.3 353 243.7 377 225 380C206.3 383 187.7 365 169 346C150.3 327 131.7 307 112.8 316C94 325 75 363 56.2 374C37.3 385 18.7 369 9.3 361L0 353Z" fill="#182044"></path><path d="M0 517L9.3 517C18.7 517 37.3 517 56.2 508C75 499 94 481 112.8 481C131.7 481 150.3 499 169 508C187.7 517 206.3 517 225 518C243.7 519 262.3 521 281.2 523C300 525 319 527 337.8 524C356.7 521 375.3 513 394 508C412.7 503 431.3 501 450 503C468.7 505 487.3 511 506.2 508C525 505 544 493 562.8 490C581.7 487 600.3 493 619 498C637.7 503 656.3 507 675 502C693.7 497 712.3 483 731.2 484C750 485 769 501 787.8 507C806.7 513 825.3 509 844 507C862.7 505 881.3 505 890.7 505L900 505L900 461L890.7 462C881.3 463 862.7 465 844 469C825.3 473 806.7 479 787.8 477C769 475 750 465 731.2 463C712.3 461 693.7 467 675 467C656.3 467 637.7 461 619 455C600.3 449 581.7 443 562.8 451C544 459 525 481 506.2 488C487.3 495 468.7 487 450 485C431.3 483 412.7 487 394 489C375.3 491 356.7 491 337.8 492C319 493 300 495 281.2 493C262.3 491 243.7 485 225 484C206.3 483 187.7 487 169 480C150.3 473 131.7 455 112.8 453C94 451 75 465 56.2 475C37.3 485 18.7 491 9.3 494L0 497Z" fill="#1c2550"></path><path d="M0 535L9.3 534C18.7 533 37.3 531 56.2 525C75 519 94 509 112.8 510C131.7 511 150.3 523 169 529C187.7 535 206.3 535 225 535C243.7 535 262.3 535 281.2 536C300 537 319 539 337.8 536C356.7 533 375.3 525 394 521C412.7 517 431.3 517 450 521C468.7 525 487.3 533 506.2 533C525 533 544 525 562.8 525C581.7 525 600.3 533 619 538C637.7 543 656.3 545 675 539C693.7 533 712.3 519 731.2 516C750 513 769 521 787.8 525C806.7 529 825.3 529 844 530C862.7 531 881.3 533 890.7 534L900 535L900 503L890.7 503C881.3 503 862.7 503 844 505C825.3 507 806.7 511 787.8 505C769 499 750 483 731.2 482C712.3 481 693.7 495 675 500C656.3 505 637.7 501 619 496C600.3 491 581.7 485 562.8 488C544 491 525 503 506.2 506C487.3 509 468.7 503 450 501C431.3 499 412.7 501 394 506C375.3 511 356.7 519 337.8 522C319 525 300 523 281.2 521C262.3 519 243.7 517 225 516C206.3 515 187.7 515 169 506C150.3 497 131.7 479 112.8 479C94 479 75 497 56.2 506C37.3 515 18.7 515 9.3 515L0 515Z" fill="#21295c"></path><path d="M0 553L9.3 557C18.7 561 37.3 569 56.2 568C75 567 94 557 112.8 556C131.7 555 150.3 563 169 566C187.7 569 206.3 567 225 566C243.7 565 262.3 565 281.2 567C300 569 319 573 337.8 573C356.7 573 375.3 569 394 567C412.7 565 431.3 565 450 567C468.7 569 487.3 573 506.2 572C525 571 544 565 562.8 563C581.7 561 600.3 563 619 565C637.7 567 656.3 569 675 567C693.7 565 712.3 559 731.2 557C750 555 769 557 787.8 556C806.7 555 825.3 551 844 550C862.7 549 881.3 551 890.7 552L900 553L900 533L890.7 532C881.3 531 862.7 529 844 528C825.3 527 806.7 527 787.8 523C769 519 750 511 731.2 514C712.3 517 693.7 531 675 537C656.3 543 637.7 541 619 536C600.3 531 581.7 523 562.8 523C544 523 525 531 506.2 531C487.3 531 468.7 523 450 519C431.3 515 412.7 515 394 519C375.3 523 356.7 531 337.8 534C319 537 300 535 281.2 534C262.3 533 243.7 533 225 533C206.3 533 187.7 533 169 527C150.3 521 131.7 509 112.8 508C94 507 75 517 56.2 523C37.3 529 18.7 531 9.3 532L0 533Z" fill="#333a6f"></path><path d="M0 601L9.3 601C18.7 601 37.3 601 56.2 601C75 601 94 601 112.8 601C131.7 601 150.3 601 169 601C187.7 601 206.3 601 225 601C243.7 601 262.3 601 281.2 601C300 601 319 601 337.8 601C356.7 601 375.3 601 394 601C412.7 601 431.3 601 450 601C468.7 601 487.3 601 506.2 601C525 601 544 601 562.8 601C581.7 601 600.3 601 619 601C637.7 601 656.3 601 675 601C693.7 601 712.3 601 731.2 601C750 601 769 601 787.8 601C806.7 601 825.3 601 844 601C862.7 601 881.3 601 890.7 601L900 601L900 551L890.7 550C881.3 549 862.7 547 844 548C825.3 549 806.7 553 787.8 554C769 555 750 553 731.2 555C712.3 557 693.7 563 675 565C656.3 567 637.7 565 619 563C600.3 561 581.7 559 562.8 561C544 563 525 569 506.2 570C487.3 571 468.7 567 450 565C431.3 563 412.7 563 394 565C375.3 567 356.7 571 337.8 571C319 571 300 567 281.2 565C262.3 563 243.7 563 225 564C206.3 565 187.7 567 169 564C150.3 561 131.7 553 112.8 554C94 555 75 565 56.2 566C37.3 567 18.7 559 9.3 555L0 551Z" fill="#444b83"></path></svg>