<svg id="visual" viewBox="0 0 900 600" width="900" height="600" xmlns="http://www.w3.org/2000/svg" xmlns:xlink="http://www.w3.org/1999/xlink" version="1.1"><path d="M0 91L13.7 92C27.3 93 54.7 95 82 96C109.3 97 136.7 97 163.8 91C191 85 218 73 245.2 80C272.3 87 299.7 113 327 121C354.3 129 381.7 119 409 120C436.3 121 463.7 133 491 135C518.3 137 545.7 129 573 123C600.3 117 627.7 113 654.8 119C682 125 709 141 736.2 153C763.3 165 790.7 173 818 164C845.3 155 872.7 129 886.3 116L900 103L900 0L886.3 0C872.7 0 845.3 0 818 0C790.7 0 763.3 0 736.2 0C709 0 682 0 654.8 0C627.7 0 600.3 0 573 0C545.7 0 518.3 0 491 0C463.7 0 436.3 0 409 0C381.7 0 354.3 0 327 0C299.7 0 272.3 0 245.2 0C218 0 191 0 163.8 0C136.7 0 109.3 0 82 0C54.7 0 27.3 0 13.7 0L0 0Z" fill="#444b83"></path><path d="M0 283L13.7 292C27.3 301 54.7 319 82 305C109.3 291 136.7 245 163.8 217C191 189 218 179 245.2 197C272.3 215 299.7 261 327 279C354.3 297 381.7 287 409 283C436.3 279 463.7 281 491 279C518.3 277 545.7 271 573 262C600.3 253 627.7 241 654.8 250C682 259 709 289 736.2 304C763.3 319 790.7 319 818 326C845.3 333 872.7 347 886.3 354L900 361L900 101L886.3 114C872.7 127 845.3 153 818 162C790.7 171 763.3 163 736.2 151C709 139 682 123 654.8 117C627.7 111 600.3 115 573 121C545.7 127 518.3 135 491 133C463.7 131 436.3 119 409 118C381.7 117 354.3 127 327 119C299.7 111 272.3 85 245.2 78C218 71 191 83 163.8 89C136.7 95 109.3 95 82 94C54.7 93 27.3 91 13.7 90L0 89Z" fill="#1e2756"></path><path d="M0 337L13.7 357C27.3 377 54.7 417 82 415C109.3 413 136.7 369 163.8 338C191 307 218 289 245.2 306C272.3 323 299.7 375 327 389C354.3 403 381.7 379 409 366C436.3 353 463.7 351 491 357C518.3 363 545.7 377 573 374C600.3 371 627.7 351 654.8 350C682 349 709 367 736.2 373C763.3 379 790.7 373 818 386C845.3 399 872.7 431 886.3 447L900 463L900 359L886.3 352C872.7 345 845.3 331 818 324C790.7 317 763.3 317 736.2 302C709 287 682 257 654.8 248C627.7 239 600.3 251 573 260C545.7 269 518.3 275 491 277C463.7 279 436.3 277 409 281C381.7 285 354.3 295 327 277C299.7 259 272.3 213 245.2 195C218 177 191 187 163.8 215C136.7 243 109.3 289 82 303C54.7 317 27.3 299 13.7 290L0 281Z" fill="#182044"></path><path d="M0 523L13.7 527C27.3 531 54.7 539 82 540C109.3 541 136.7 535 163.8 530C191 525 218 521 245.2 519C272.3 517 299.7 517 327 517C354.3 517 381.7 517 409 515C436.3 513 463.7 509 491 517C518.3 525 545.7 545 573 548C600.3 551 627.7 537 654.8 530C682 523 709 523 736.2 529C763.3 535 790.7 547 818 554C845.3 561 872.7 563 886.3 564L900 565L900 461L886.3 445C872.7 429 845.3 397 818 384C790.7 371 763.3 377 736.2 371C709 365 682 347 654.8 348C627.7 349 600.3 369 573 372C545.7 375 518.3 361 491 355C463.7 349 436.3 351 409 364C381.7 377 354.3 401 327 387C299.7 373 272.3 321 245.2 304C218 287 191 305 163.8 336C136.7 367 109.3 411 82 413C54.7 415 27.3 375 13.7 355L0 335Z" fill="#1e2756"></path><path d="M0 601L13.7 601C27.3 601 54.7 601 82 601C109.3 601 136.7 601 163.8 601C191 601 218 601 245.2 601C272.3 601 299.7 601 327 601C354.3 601 381.7 601 409 601C436.3 601 463.7 601 491 601C518.3 601 545.7 601 573 601C600.3 601 627.7 601 654.8 601C682 601 709 601 736.2 601C763.3 601 790.7 601 818 601C845.3 601 872.7 601 886.3 601L900 601L900 563L886.3 562C872.7 561 845.3 559 818 552C790.7 545 763.3 533 736.2 527C709 521 682 521 654.8 528C627.7 535 600.3 549 573 546C545.7 543 518.3 523 491 515C463.7 507 436.3 511 409 513C381.7 515 354.3 515 327 515C299.7 515 272.3 515 245.2 517C218 519 191 523 163.8 528C136.7 533 109.3 539 82 538C54.7 537 27.3 529 13.7 525L0 521Z" fill="#444b83"></path></svg>